<svg id="Layer_1" data-name="Layer 1" xmlns="http://www.w3.org/2000/svg" viewBox="0 0 324.66998 324.66998"><defs><style>.cls-1{fill:#1c3a7f;}.cls-2{fill:#9c0505;}.cls-3{fill:#9c1a17;}.cls-4{fill:#be1818;}.cls-5{fill:silver;}.cls-6{fill:#eee;}</style></defs><title>Volcanic</title><path class="cls-1" d="M324.67,162.33A161.67393,161.67393,0,0,1,286.36,267.07a163.67792,163.67792,0,0,1-16.13,16.55,161.61816,161.61816,0,0,1-104.05,41.01c-.63.01-1.26.02-1.9.03-.65.01-1.3.01-1.95.01-.64,0-1.29,0-1.93005-.01A162.33575,162.33575,0,1,1,324.67,162.33Z"/><path class="cls-2" d="M162.33,149.76459,162.32507,160.23l-20.61-21.06-34.23541,21.05719L38.32,267.07A162.22549,162.22549,0,0,0,160.4,324.66c.64.01,1.29.01,1.93005.01V149.76459Z"/><polygon class="cls-3" points="162.33 75.5 141.594 107.53 162.33 75.508 162.33 75.5"/><path class="cls-4" d="M217.18262,160.22552,182.05,139.17l-19.72,21.06V324.67c.65,0,1.3,0,1.95-.01.64-.01,1.27-.02,1.9-.03a161.61816,161.61816,0,0,0,104.05-41.01,163.67792,163.67792,0,0,0,16.13-16.55Z"/><polygon class="cls-5" points="162.325 160.23 162.33 149.765 162.33 75.508 141.594 107.53 121.105 139.17 107.475 160.23 107.48 160.227 141.715 139.17 162.325 160.23"/><polygon class="cls-6" points="162.33 149.765 162.33 160.23 182.05 139.17 217.183 160.226 217.19 160.23 203.55 139.17 162.34 75.5 162.33 75.5 162.33 75.508 162.33 149.765"/></svg>
